<?xml version="1.0" encoding="utf-8" standalone="no"?>
<!DOCTYPE svg PUBLIC "-//W3C//DTD SVG 1.1//EN"
  "http://www.w3.org/Graphics/SVG/1.1/DTD/svg11.dtd">
<svg xmlns:xlink="http://www.w3.org/1999/xlink" width="720pt" height="432pt" viewBox="0 0 720 432" xmlns="http://www.w3.org/2000/svg" version="1.1">
 <metadata>
  <rdf:RDF xmlns:dc="http://purl.org/dc/elements/1.1/" xmlns:cc="http://creativecommons.org/ns#" xmlns:rdf="http://www.w3.org/1999/02/22-rdf-syntax-ns#">
   <cc:Work>
    <dc:type rdf:resource="http://purl.org/dc/dcmitype/StillImage"/>
    <dc:date>2025-11-15T21:36:57.541916</dc:date>
    <dc:format>image/svg+xml</dc:format>
    <dc:creator>
     <cc:Agent>
      <dc:title>Matplotlib v3.6.2, https://matplotlib.org/</dc:title>
     </cc:Agent>
    </dc:creator>
   </cc:Work>
  </rdf:RDF>
 </metadata>
 <defs>
  <style type="text/css">*{stroke-linejoin: round; stroke-linecap: butt}</style>
 </defs>
 <g id="figure_1">
  <g id="patch_1">
   <path d="M 0 432 
L 720 432 
L 720 0 
L 0 0 
z
" style="fill: #ffffff"/>
  </g>
  <g id="axes_1">
   <g id="patch_2">
    <path d="M 90 384.48 
L 648 384.48 
L 648 51.84 
L 90 51.84 
z
" style="fill: #ffffff"/>
   </g>
   <g id="matplotlib.axis_1">
    <g id="xtick_1">
     <g id="line2d_1">
      <path d="M 115.363636 384.48 
L 115.363636 51.84 
" clip-path="url(#p7c3c0870c9)" style="fill: none; stroke: #b0b0b0; stroke-width: 0.8; stroke-linecap: square"/>
     </g>
     <g id="line2d_2">
      <defs>
       <path id="m589d132074" d="M 0 0 
L 0 3.5 
" style="stroke: #000000; stroke-width: 0.8"/>
      </defs>
      <g>
       <use xlink:href="#m589d132074" x="115.363636" y="384.48" style="stroke: #000000; stroke-width: 0.8"/>
      </g>
     </g>
     <g id="text_1">
      <!-- 0 -->
      <g transform="translate(112.182386 399.078438) scale(0.1 -0.1)">
       <defs>
        <path id="DejaVuSans-30" d="M 2034 4250 
Q 1547 4250 1301 3770 
Q 1056 3291 1056 2328 
Q 1056 1369 1301 889 
Q 1547 409 2034 409 
Q 2525 409 2770 889 
Q 3016 1369 3016 2328 
Q 3016 3291 2770 3770 
Q 2525 4250 2034 4250 
z
M 2034 4750 
Q 2819 4750 3233 4129 
Q 3647 3509 3647 2328 
Q 3647 1150 3233 529 
Q 2819 -91 2034 -91 
Q 1250 -91 836 529 
Q 422 1150 422 2328 
Q 422 3509 836 4129 
Q 1250 4750 2034 4750 
z
" transform="scale(0.015625)"/>
       </defs>
       <use xlink:href="#DejaVuSans-30"/>
      </g>
     </g>
    </g>
    <g id="xtick_2">
     <g id="line2d_3">
      <path d="M 182.110048 384.48 
L 182.110048 51.84 
" clip-path="url(#p7c3c0870c9)" style="fill: none; stroke: #b0b0b0; stroke-width: 0.8; stroke-linecap: square"/>
     </g>
     <g id="line2d_4">
      <g>
       <use xlink:href="#m589d132074" x="182.110048" y="384.48" style="stroke: #000000; stroke-width: 0.8"/>
      </g>
     </g>
     <g id="text_2">
      <!-- 10 -->
      <g transform="translate(175.747548 399.078438) scale(0.1 -0.1)">
       <defs>
        <path id="DejaVuSans-31" d="M 794 531 
L 1825 531 
L 1825 4091 
L 703 3866 
L 703 4441 
L 1819 4666 
L 2450 4666 
L 2450 531 
L 3481 531 
L 3481 0 
L 794 0 
L 794 531 
z
" transform="scale(0.015625)"/>
       </defs>
       <use xlink:href="#DejaVuSans-31"/>
       <use xlink:href="#DejaVuSans-30" x="63.623047"/>
      </g>
     </g>
    </g>
    <g id="xtick_3">
     <g id="line2d_5">
      <path d="M 248.856459 384.48 
L 248.856459 51.84 
" clip-path="url(#p7c3c0870c9)" style="fill: none; stroke: #b0b0b0; stroke-width: 0.8; stroke-linecap: square"/>
     </g>
     <g id="line2d_6">
      <g>
       <use xlink:href="#m589d132074" x="248.856459" y="384.48" style="stroke: #000000; stroke-width: 0.8"/>
      </g>
     </g>
     <g id="text_3">
      <!-- 20 -->
      <g transform="translate(242.493959 399.078438) scale(0.1 -0.1)">
       <defs>
        <path id="DejaVuSans-32" d="M 1228 531 
L 3431 531 
L 3431 0 
L 469 0 
L 469 531 
Q 828 903 1448 1529 
Q 2069 2156 2228 2338 
Q 2531 2678 2651 2914 
Q 2772 3150 2772 3378 
Q 2772 3750 2511 3984 
Q 2250 4219 1831 4219 
Q 1534 4219 1204 4116 
Q 875 4013 500 3803 
L 500 4441 
Q 881 4594 1212 4672 
Q 1544 4750 1819 4750 
Q 2544 4750 2975 4387 
Q 3406 4025 3406 3419 
Q 3406 3131 3298 2873 
Q 3191 2616 2906 2266 
Q 2828 2175 2409 1742 
Q 1991 1309 1228 531 
z
" transform="scale(0.015625)"/>
       </defs>
       <use xlink:href="#DejaVuSans-32"/>
       <use xlink:href="#DejaVuSans-30" x="63.623047"/>
      </g>
     </g>
    </g>
    <g id="xtick_4">
     <g id="line2d_7">
      <path d="M 315.602871 384.48 
L 315.602871 51.84 
" clip-path="url(#p7c3c0870c9)" style="fill: none; stroke: #b0b0b0; stroke-width: 0.8; stroke-linecap: square"/>
     </g>
     <g id="line2d_8">
      <g>
       <use xlink:href="#m589d132074" x="315.602871" y="384.48" style="stroke: #000000; stroke-width: 0.8"/>
      </g>
     </g>
     <g id="text_4">
      <!-- 30 -->
      <g transform="translate(309.240371 399.078438) scale(0.1 -0.1)">
       <defs>
        <path id="DejaVuSans-33" d="M 2597 2516 
Q 3050 2419 3304 2112 
Q 3559 1806 3559 1356 
Q 3559 666 3084 287 
Q 2609 -91 1734 -91 
Q 1441 -91 1130 -33 
Q 819 25 488 141 
L 488 750 
Q 750 597 1062 519 
Q 1375 441 1716 441 
Q 2309 441 2620 675 
Q 2931 909 2931 1356 
Q 2931 1769 2642 2001 
Q 2353 2234 1838 2234 
L 1294 2234 
L 1294 2753 
L 1863 2753 
Q 2328 2753 2575 2939 
Q 2822 3125 2822 3475 
Q 2822 3834 2567 4026 
Q 2313 4219 1838 4219 
Q 1578 4219 1281 4162 
Q 984 4106 628 3988 
L 628 4550 
Q 988 4650 1302 4700 
Q 1616 4750 1894 4750 
Q 2613 4750 3031 4423 
Q 3450 4097 3450 3541 
Q 3450 3153 3228 2886 
Q 3006 2619 2597 2516 
z
" transform="scale(0.015625)"/>
       </defs>
       <use xlink:href="#DejaVuSans-33"/>
       <use xlink:href="#DejaVuSans-30" x="63.623047"/>
      </g>
     </g>
    </g>
    <g id="xtick_5">
     <g id="line2d_9">
      <path d="M 382.349282 384.48 
L 382.349282 51.84 
" clip-path="url(#p7c3c0870c9)" style="fill: none; stroke: #b0b0b0; stroke-width: 0.8; stroke-linecap: square"/>
     </g>
     <g id="line2d_10">
      <g>
       <use xlink:href="#m589d132074" x="382.349282" y="384.48" style="stroke: #000000; stroke-width: 0.8"/>
      </g>
     </g>
     <g id="text_5">
      <!-- 40 -->
      <g transform="translate(375.986782 399.078438) scale(0.1 -0.1)">
       <defs>
        <path id="DejaVuSans-34" d="M 2419 4116 
L 825 1625 
L 2419 1625 
L 2419 4116 
z
M 2253 4666 
L 3047 4666 
L 3047 1625 
L 3713 1625 
L 3713 1100 
L 3047 1100 
L 3047 0 
L 2419 0 
L 2419 1100 
L 313 1100 
L 313 1709 
L 2253 4666 
z
" transform="scale(0.015625)"/>
       </defs>
       <use xlink:href="#DejaVuSans-34"/>
       <use xlink:href="#DejaVuSans-30" x="63.623047"/>
      </g>
     </g>
    </g>
    <g id="xtick_6">
     <g id="line2d_11">
      <path d="M 449.095694 384.48 
L 449.095694 51.84 
" clip-path="url(#p7c3c0870c9)" style="fill: none; stroke: #b0b0b0; stroke-width: 0.8; stroke-linecap: square"/>
     </g>
     <g id="line2d_12">
      <g>
       <use xlink:href="#m589d132074" x="449.095694" y="384.48" style="stroke: #000000; stroke-width: 0.8"/>
      </g>
     </g>
     <g id="text_6">
      <!-- 50 -->
      <g transform="translate(442.733194 399.078438) scale(0.1 -0.1)">
       <defs>
        <path id="DejaVuSans-35" d="M 691 4666 
L 3169 4666 
L 3169 4134 
L 1269 4134 
L 1269 2991 
Q 1406 3038 1543 3061 
Q 1681 3084 1819 3084 
Q 2600 3084 3056 2656 
Q 3513 2228 3513 1497 
Q 3513 744 3044 326 
Q 2575 -91 1722 -91 
Q 1428 -91 1123 -41 
Q 819 9 494 109 
L 494 744 
Q 775 591 1075 516 
Q 1375 441 1709 441 
Q 2250 441 2565 725 
Q 2881 1009 2881 1497 
Q 2881 1984 2565 2268 
Q 2250 2553 1709 2553 
Q 1456 2553 1204 2497 
Q 953 2441 691 2322 
L 691 4666 
z
" transform="scale(0.015625)"/>
       </defs>
       <use xlink:href="#DejaVuSans-35"/>
       <use xlink:href="#DejaVuSans-30" x="63.623047"/>
      </g>
     </g>
    </g>
    <g id="xtick_7">
     <g id="line2d_13">
      <path d="M 515.842105 384.48 
L 515.842105 51.84 
" clip-path="url(#p7c3c0870c9)" style="fill: none; stroke: #b0b0b0; stroke-width: 0.8; stroke-linecap: square"/>
     </g>
     <g id="line2d_14">
      <g>
       <use xlink:href="#m589d132074" x="515.842105" y="384.48" style="stroke: #000000; stroke-width: 0.8"/>
      </g>
     </g>
     <g id="text_7">
      <!-- 60 -->
      <g transform="translate(509.479605 399.078438) scale(0.1 -0.1)">
       <defs>
        <path id="DejaVuSans-36" d="M 2113 2584 
Q 1688 2584 1439 2293 
Q 1191 2003 1191 1497 
Q 1191 994 1439 701 
Q 1688 409 2113 409 
Q 2538 409 2786 701 
Q 3034 994 3034 1497 
Q 3034 2003 2786 2293 
Q 2538 2584 2113 2584 
z
M 3366 4563 
L 3366 3988 
Q 3128 4100 2886 4159 
Q 2644 4219 2406 4219 
Q 1781 4219 1451 3797 
Q 1122 3375 1075 2522 
Q 1259 2794 1537 2939 
Q 1816 3084 2150 3084 
Q 2853 3084 3261 2657 
Q 3669 2231 3669 1497 
Q 3669 778 3244 343 
Q 2819 -91 2113 -91 
Q 1303 -91 875 529 
Q 447 1150 447 2328 
Q 447 3434 972 4092 
Q 1497 4750 2381 4750 
Q 2619 4750 2861 4703 
Q 3103 4656 3366 4563 
z
" transform="scale(0.015625)"/>
       </defs>
       <use xlink:href="#DejaVuSans-36"/>
       <use xlink:href="#DejaVuSans-30" x="63.623047"/>
      </g>
     </g>
    </g>
    <g id="xtick_8">
     <g id="line2d_15">
      <path d="M 582.588517 384.48 
L 582.588517 51.84 
" clip-path="url(#p7c3c0870c9)" style="fill: none; stroke: #b0b0b0; stroke-width: 0.8; stroke-linecap: square"/>
     </g>
     <g id="line2d_16">
      <g>
       <use xlink:href="#m589d132074" x="582.588517" y="384.48" style="stroke: #000000; stroke-width: 0.8"/>
      </g>
     </g>
     <g id="text_8">
      <!-- 70 -->
      <g transform="translate(576.226017 399.078438) scale(0.1 -0.1)">
       <defs>
        <path id="DejaVuSans-37" d="M 525 4666 
L 3525 4666 
L 3525 4397 
L 1831 0 
L 1172 0 
L 2766 4134 
L 525 4134 
L 525 4666 
z
" transform="scale(0.015625)"/>
       </defs>
       <use xlink:href="#DejaVuSans-37"/>
       <use xlink:href="#DejaVuSans-30" x="63.623047"/>
      </g>
     </g>
    </g>
    <g id="text_9">
     <!-- Cycle -->
     <g transform="translate(355.334375 412.756563) scale(0.1 -0.1)">
      <defs>
       <path id="DejaVuSans-43" d="M 4122 4306 
L 4122 3641 
Q 3803 3938 3442 4084 
Q 3081 4231 2675 4231 
Q 1875 4231 1450 3742 
Q 1025 3253 1025 2328 
Q 1025 1406 1450 917 
Q 1875 428 2675 428 
Q 3081 428 3442 575 
Q 3803 722 4122 1019 
L 4122 359 
Q 3791 134 3420 21 
Q 3050 -91 2638 -91 
Q 1578 -91 968 557 
Q 359 1206 359 2328 
Q 359 3453 968 4101 
Q 1578 4750 2638 4750 
Q 3056 4750 3426 4639 
Q 3797 4528 4122 4306 
z
" transform="scale(0.015625)"/>
       <path id="DejaVuSans-79" d="M 2059 -325 
Q 1816 -950 1584 -1140 
Q 1353 -1331 966 -1331 
L 506 -1331 
L 506 -850 
L 844 -850 
Q 1081 -850 1212 -737 
Q 1344 -625 1503 -206 
L 1606 56 
L 191 3500 
L 800 3500 
L 1894 763 
L 2988 3500 
L 3597 3500 
L 2059 -325 
z
" transform="scale(0.015625)"/>
       <path id="DejaVuSans-63" d="M 3122 3366 
L 3122 2828 
Q 2878 2963 2633 3030 
Q 2388 3097 2138 3097 
Q 1578 3097 1268 2742 
Q 959 2388 959 1747 
Q 959 1106 1268 751 
Q 1578 397 2138 397 
Q 2388 397 2633 464 
Q 2878 531 3122 666 
L 3122 134 
Q 2881 22 2623 -34 
Q 2366 -91 2075 -91 
Q 1284 -91 818 406 
Q 353 903 353 1747 
Q 353 2603 823 3093 
Q 1294 3584 2113 3584 
Q 2378 3584 2631 3529 
Q 2884 3475 3122 3366 
z
" transform="scale(0.015625)"/>
       <path id="DejaVuSans-6c" d="M 603 4863 
L 1178 4863 
L 1178 0 
L 603 0 
L 603 4863 
z
" transform="scale(0.015625)"/>
       <path id="DejaVuSans-65" d="M 3597 1894 
L 3597 1613 
L 953 1613 
Q 991 1019 1311 708 
Q 1631 397 2203 397 
Q 2534 397 2845 478 
Q 3156 559 3463 722 
L 3463 178 
Q 3153 47 2828 -22 
Q 2503 -91 2169 -91 
Q 1331 -91 842 396 
Q 353 884 353 1716 
Q 353 2575 817 3079 
Q 1281 3584 2069 3584 
Q 2775 3584 3186 3129 
Q 3597 2675 3597 1894 
z
M 3022 2063 
Q 3016 2534 2758 2815 
Q 2500 3097 2075 3097 
Q 1594 3097 1305 2825 
Q 1016 2553 972 2059 
L 3022 2063 
z
" transform="scale(0.015625)"/>
      </defs>
      <use xlink:href="#DejaVuSans-43"/>
      <use xlink:href="#DejaVuSans-79" x="69.824219"/>
      <use xlink:href="#DejaVuSans-63" x="129.003906"/>
      <use xlink:href="#DejaVuSans-6c" x="183.984375"/>
      <use xlink:href="#DejaVuSans-65" x="211.767578"/>
     </g>
    </g>
   </g>
   <g id="matplotlib.axis_2">
    <g id="ytick_1">
     <g id="line2d_17">
      <path d="M 90 316.700448 
L 648 316.700448 
" clip-path="url(#p7c3c0870c9)" style="fill: none; stroke: #b0b0b0; stroke-width: 0.8; stroke-linecap: square"/>
     </g>
     <g id="line2d_18">
      <defs>
       <path id="mb459ea0917" d="M 0 0 
L -3.5 0 
" style="stroke: #000000; stroke-width: 0.8"/>
      </defs>
      <g>
       <use xlink:href="#mb459ea0917" x="90" y="316.700448" style="stroke: #000000; stroke-width: 0.8"/>
      </g>
     </g>
     <g id="text_10">
      <!-- 0.75 -->
      <g transform="translate(60.734375 320.499666) scale(0.1 -0.1)">
       <defs>
        <path id="DejaVuSans-2e" d="M 684 794 
L 1344 794 
L 1344 0 
L 684 0 
L 684 794 
z
" transform="scale(0.015625)"/>
       </defs>
       <use xlink:href="#DejaVuSans-30"/>
       <use xlink:href="#DejaVuSans-2e" x="63.623047"/>
       <use xlink:href="#DejaVuSans-37" x="95.410156"/>
       <use xlink:href="#DejaVuSans-35" x="159.033203"/>
      </g>
     </g>
    </g>
    <g id="ytick_2">
     <g id="line2d_19">
      <path d="M 90 247.786868 
L 648 247.786868 
" clip-path="url(#p7c3c0870c9)" style="fill: none; stroke: #b0b0b0; stroke-width: 0.8; stroke-linecap: square"/>
     </g>
     <g id="line2d_20">
      <g>
       <use xlink:href="#mb459ea0917" x="90" y="247.786868" style="stroke: #000000; stroke-width: 0.8"/>
      </g>
     </g>
     <g id="text_11">
      <!-- 0.80 -->
      <g transform="translate(60.734375 251.586087) scale(0.1 -0.1)">
       <defs>
        <path id="DejaVuSans-38" d="M 2034 2216 
Q 1584 2216 1326 1975 
Q 1069 1734 1069 1313 
Q 1069 891 1326 650 
Q 1584 409 2034 409 
Q 2484 409 2743 651 
Q 3003 894 3003 1313 
Q 3003 1734 2745 1975 
Q 2488 2216 2034 2216 
z
M 1403 2484 
Q 997 2584 770 2862 
Q 544 3141 544 3541 
Q 544 4100 942 4425 
Q 1341 4750 2034 4750 
Q 2731 4750 3128 4425 
Q 3525 4100 3525 3541 
Q 3525 3141 3298 2862 
Q 3072 2584 2669 2484 
Q 3125 2378 3379 2068 
Q 3634 1759 3634 1313 
Q 3634 634 3220 271 
Q 2806 -91 2034 -91 
Q 1263 -91 848 271 
Q 434 634 434 1313 
Q 434 1759 690 2068 
Q 947 2378 1403 2484 
z
M 1172 3481 
Q 1172 3119 1398 2916 
Q 1625 2713 2034 2713 
Q 2441 2713 2670 2916 
Q 2900 3119 2900 3481 
Q 2900 3844 2670 4047 
Q 2441 4250 2034 4250 
Q 1625 4250 1398 4047 
Q 1172 3844 1172 3481 
z
" transform="scale(0.015625)"/>
       </defs>
       <use xlink:href="#DejaVuSans-30"/>
       <use xlink:href="#DejaVuSans-2e" x="63.623047"/>
       <use xlink:href="#DejaVuSans-38" x="95.410156"/>
       <use xlink:href="#DejaVuSans-30" x="159.033203"/>
      </g>
     </g>
    </g>
    <g id="ytick_3">
     <g id="line2d_21">
      <path d="M 90 178.873289 
L 648 178.873289 
" clip-path="url(#p7c3c0870c9)" style="fill: none; stroke: #b0b0b0; stroke-width: 0.8; stroke-linecap: square"/>
     </g>
     <g id="line2d_22">
      <g>
       <use xlink:href="#mb459ea0917" x="90" y="178.873289" style="stroke: #000000; stroke-width: 0.8"/>
      </g>
     </g>
     <g id="text_12">
      <!-- 0.85 -->
      <g transform="translate(60.734375 182.672507) scale(0.1 -0.1)">
       <use xlink:href="#DejaVuSans-30"/>
       <use xlink:href="#DejaVuSans-2e" x="63.623047"/>
       <use xlink:href="#DejaVuSans-38" x="95.410156"/>
       <use xlink:href="#DejaVuSans-35" x="159.033203"/>
      </g>
     </g>
    </g>
    <g id="ytick_4">
     <g id="line2d_23">
      <path d="M 90 109.959709 
L 648 109.959709 
" clip-path="url(#p7c3c0870c9)" style="fill: none; stroke: #b0b0b0; stroke-width: 0.8; stroke-linecap: square"/>
     </g>
     <g id="line2d_24">
      <g>
       <use xlink:href="#mb459ea0917" x="90" y="109.959709" style="stroke: #000000; stroke-width: 0.8"/>
      </g>
     </g>
     <g id="text_13">
      <!-- 0.90 -->
      <g transform="translate(60.734375 113.758928) scale(0.1 -0.1)">
       <defs>
        <path id="DejaVuSans-39" d="M 703 97 
L 703 672 
Q 941 559 1184 500 
Q 1428 441 1663 441 
Q 2288 441 2617 861 
Q 2947 1281 2994 2138 
Q 2813 1869 2534 1725 
Q 2256 1581 1919 1581 
Q 1219 1581 811 2004 
Q 403 2428 403 3163 
Q 403 3881 828 4315 
Q 1253 4750 1959 4750 
Q 2769 4750 3195 4129 
Q 3622 3509 3622 2328 
Q 3622 1225 3098 567 
Q 2575 -91 1691 -91 
Q 1453 -91 1209 -44 
Q 966 3 703 97 
z
M 1959 2075 
Q 2384 2075 2632 2365 
Q 2881 2656 2881 3163 
Q 2881 3666 2632 3958 
Q 2384 4250 1959 4250 
Q 1534 4250 1286 3958 
Q 1038 3666 1038 3163 
Q 1038 2656 1286 2365 
Q 1534 2075 1959 2075 
z
" transform="scale(0.015625)"/>
       </defs>
       <use xlink:href="#DejaVuSans-30"/>
       <use xlink:href="#DejaVuSans-2e" x="63.623047"/>
       <use xlink:href="#DejaVuSans-39" x="95.410156"/>
       <use xlink:href="#DejaVuSans-30" x="159.033203"/>
      </g>
     </g>
    </g>
    <g id="text_14">
     <!-- SOH -->
     <g transform="translate(54.654688 229.030312) rotate(-90) scale(0.1 -0.1)">
      <defs>
       <path id="DejaVuSans-53" d="M 3425 4513 
L 3425 3897 
Q 3066 4069 2747 4153 
Q 2428 4238 2131 4238 
Q 1616 4238 1336 4038 
Q 1056 3838 1056 3469 
Q 1056 3159 1242 3001 
Q 1428 2844 1947 2747 
L 2328 2669 
Q 3034 2534 3370 2195 
Q 3706 1856 3706 1288 
Q 3706 609 3251 259 
Q 2797 -91 1919 -91 
Q 1588 -91 1214 -16 
Q 841 59 441 206 
L 441 856 
Q 825 641 1194 531 
Q 1563 422 1919 422 
Q 2459 422 2753 634 
Q 3047 847 3047 1241 
Q 3047 1584 2836 1778 
Q 2625 1972 2144 2069 
L 1759 2144 
Q 1053 2284 737 2584 
Q 422 2884 422 3419 
Q 422 4038 858 4394 
Q 1294 4750 2059 4750 
Q 2388 4750 2728 4690 
Q 3069 4631 3425 4513 
z
" transform="scale(0.015625)"/>
       <path id="DejaVuSans-4f" d="M 2522 4238 
Q 1834 4238 1429 3725 
Q 1025 3213 1025 2328 
Q 1025 1447 1429 934 
Q 1834 422 2522 422 
Q 3209 422 3611 934 
Q 4013 1447 4013 2328 
Q 4013 3213 3611 3725 
Q 3209 4238 2522 4238 
z
M 2522 4750 
Q 3503 4750 4090 4092 
Q 4678 3434 4678 2328 
Q 4678 1225 4090 567 
Q 3503 -91 2522 -91 
Q 1538 -91 948 565 
Q 359 1222 359 2328 
Q 359 3434 948 4092 
Q 1538 4750 2522 4750 
z
" transform="scale(0.015625)"/>
       <path id="DejaVuSans-48" d="M 628 4666 
L 1259 4666 
L 1259 2753 
L 3553 2753 
L 3553 4666 
L 4184 4666 
L 4184 0 
L 3553 0 
L 3553 2222 
L 1259 2222 
L 1259 0 
L 628 0 
L 628 4666 
z
" transform="scale(0.015625)"/>
      </defs>
      <use xlink:href="#DejaVuSans-53"/>
      <use xlink:href="#DejaVuSans-4f" x="63.476562"/>
      <use xlink:href="#DejaVuSans-48" x="142.1875"/>
     </g>
    </g>
   </g>
   <g id="line2d_25">
    <path d="M 115.363636 74.313433 
L 122.038278 79.876725 
L 128.712919 85.12891 
L 135.38756 88.103447 
L 142.062201 92.339994 
L 148.736842 96.488804 
L 155.411483 100.548479 
L 162.086124 104.520499 
L 168.760766 108.359515 
L 175.435407 112.200914 
L 182.110048 115.945374 
L 188.784689 119.44108 
L 195.45933 122.791132 
L 202.133971 126.475293 
L 208.808612 130.404512 
L 215.483254 134.663897 
L 222.157895 139.038623 
L 228.832536 143.489338 
L 235.507177 147.761786 
L 242.181818 152.001372 
L 248.856459 156.904249 
L 255.5311 162.076747 
L 262.205742 167.652116 
L 268.880383 172.670004 
L 275.555024 177.697012 
L 282.229665 183.336048 
L 288.904306 188.135332 
L 295.578947 192.872756 
L 302.253589 197.752549 
L 308.92823 201.820685 
L 315.602871 205.586587 
L 322.277512 209.196976 
L 328.952153 212.619239 
L 335.626794 219.350395 
L 342.301435 223.31576 
L 348.976077 226.574542 
L 355.650718 230.264618 
L 362.325359 234.985858 
L 369 239.136639 
L 375.674641 243.496085 
L 382.349282 247.860624 
L 389.023923 252.642327 
L 395.698565 256.425152 
L 402.373206 259.998245 
L 409.047847 263.620053 
L 415.722488 267.411586 
L 422.397129 271.330372 
L 429.07177 275.31685 
L 435.746411 279.969165 
L 442.421053 283.344601 
L 449.095694 286.592785 
L 455.770335 290.954285 
L 462.444976 294.19491 
L 469.119617 297.427403 
L 475.794258 300.883019 
L 482.4689 304.810349 
L 489.143541 308.664317 
L 495.818182 313.047422 
L 502.492823 316.604988 
L 509.167464 319.924068 
L 515.842105 323.709933 
L 522.516746 326.689646 
L 529.191388 329.424876 
L 535.866029 331.343111 
L 542.54067 332.653097 
L 549.215311 333.996437 
L 555.889952 336.81924 
L 562.564593 339.772994 
L 569.239234 342.990617 
L 575.913876 346.137672 
L 582.588517 349.381174 
L 589.263158 352.374359 
L 595.937799 355.294348 
L 602.61244 358.168086 
L 609.287081 360.603382 
L 615.961722 362.851783 
L 622.636364 365.419671 
" clip-path="url(#p7c3c0870c9)" style="fill: none; stroke: #008000; stroke-width: 1.5; stroke-linecap: square"/>
    <defs>
     <path id="mce7476b090" d="M 0 3 
C 0.795609 3 1.55874 2.683901 2.12132 2.12132 
C 2.683901 1.55874 3 0.795609 3 0 
C 3 -0.795609 2.683901 -1.55874 2.12132 -2.12132 
C 1.55874 -2.683901 0.795609 -3 0 -3 
C -0.795609 -3 -1.55874 -2.683901 -2.12132 -2.12132 
C -2.683901 -1.55874 -3 -0.795609 -3 0 
C -3 0.795609 -2.683901 1.55874 -2.12132 2.12132 
C -1.55874 2.683901 -0.795609 3 0 3 
z
" style="stroke: #008000"/>
    </defs>
    <g clip-path="url(#p7c3c0870c9)">
     <use xlink:href="#mce7476b090" x="115.363636" y="74.313433" style="fill: #008000; stroke: #008000"/>
     <use xlink:href="#mce7476b090" x="122.038278" y="79.876725" style="fill: #008000; stroke: #008000"/>
     <use xlink:href="#mce7476b090" x="128.712919" y="85.12891" style="fill: #008000; stroke: #008000"/>
     <use xlink:href="#mce7476b090" x="135.38756" y="88.103447" style="fill: #008000; stroke: #008000"/>
     <use xlink:href="#mce7476b090" x="142.062201" y="92.339994" style="fill: #008000; stroke: #008000"/>
     <use xlink:href="#mce7476b090" x="148.736842" y="96.488804" style="fill: #008000; stroke: #008000"/>
     <use xlink:href="#mce7476b090" x="155.411483" y="100.548479" style="fill: #008000; stroke: #008000"/>
     <use xlink:href="#mce7476b090" x="162.086124" y="104.520499" style="fill: #008000; stroke: #008000"/>
     <use xlink:href="#mce7476b090" x="168.760766" y="108.359515" style="fill: #008000; stroke: #008000"/>
     <use xlink:href="#mce7476b090" x="175.435407" y="112.200914" style="fill: #008000; stroke: #008000"/>
     <use xlink:href="#mce7476b090" x="182.110048" y="115.945374" style="fill: #008000; stroke: #008000"/>
     <use xlink:href="#mce7476b090" x="188.784689" y="119.44108" style="fill: #008000; stroke: #008000"/>
     <use xlink:href="#mce7476b090" x="195.45933" y="122.791132" style="fill: #008000; stroke: #008000"/>
     <use xlink:href="#mce7476b090" x="202.133971" y="126.475293" style="fill: #008000; stroke: #008000"/>
     <use xlink:href="#mce7476b090" x="208.808612" y="130.404512" style="fill: #008000; stroke: #008000"/>
     <use xlink:href="#mce7476b090" x="215.483254" y="134.663897" style="fill: #008000; stroke: #008000"/>
     <use xlink:href="#mce7476b090" x="222.157895" y="139.038623" style="fill: #008000; stroke: #008000"/>
     <use xlink:href="#mce7476b090" x="228.832536" y="143.489338" style="fill: #008000; stroke: #008000"/>
     <use xlink:href="#mce7476b090" x="235.507177" y="147.761786" style="fill: #008000; stroke: #008000"/>
     <use xlink:href="#mce7476b090" x="242.181818" y="152.001372" style="fill: #008000; stroke: #008000"/>
     <use xlink:href="#mce7476b090" x="248.856459" y="156.904249" style="fill: #008000; stroke: #008000"/>
     <use xlink:href="#mce7476b090" x="255.5311" y="162.076747" style="fill: #008000; stroke: #008000"/>
     <use xlink:href="#mce7476b090" x="262.205742" y="167.652116" style="fill: #008000; stroke: #008000"/>
     <use xlink:href="#mce7476b090" x="268.880383" y="172.670004" style="fill: #008000; stroke: #008000"/>
     <use xlink:href="#mce7476b090" x="275.555024" y="177.697012" style="fill: #008000; stroke: #008000"/>
     <use xlink:href="#mce7476b090" x="282.229665" y="183.336048" style="fill: #008000; stroke: #008000"/>
     <use xlink:href="#mce7476b090" x="288.904306" y="188.135332" style="fill: #008000; stroke: #008000"/>
     <use xlink:href="#mce7476b090" x="295.578947" y="192.872756" style="fill: #008000; stroke: #008000"/>
     <use xlink:href="#mce7476b090" x="302.253589" y="197.752549" style="fill: #008000; stroke: #008000"/>
     <use xlink:href="#mce7476b090" x="308.92823" y="201.820685" style="fill: #008000; stroke: #008000"/>
     <use xlink:href="#mce7476b090" x="315.602871" y="205.586587" style="fill: #008000; stroke: #008000"/>
     <use xlink:href="#mce7476b090" x="322.277512" y="209.196976" style="fill: #008000; stroke: #008000"/>
     <use xlink:href="#mce7476b090" x="328.952153" y="212.619239" style="fill: #008000; stroke: #008000"/>
     <use xlink:href="#mce7476b090" x="335.626794" y="219.350395" style="fill: #008000; stroke: #008000"/>
     <use xlink:href="#mce7476b090" x="342.301435" y="223.31576" style="fill: #008000; stroke: #008000"/>
     <use xlink:href="#mce7476b090" x="348.976077" y="226.574542" style="fill: #008000; stroke: #008000"/>
     <use xlink:href="#mce7476b090" x="355.650718" y="230.264618" style="fill: #008000; stroke: #008000"/>
     <use xlink:href="#mce7476b090" x="362.325359" y="234.985858" style="fill: #008000; stroke: #008000"/>
     <use xlink:href="#mce7476b090" x="369" y="239.136639" style="fill: #008000; stroke: #008000"/>
     <use xlink:href="#mce7476b090" x="375.674641" y="243.496085" style="fill: #008000; stroke: #008000"/>
     <use xlink:href="#mce7476b090" x="382.349282" y="247.860624" style="fill: #008000; stroke: #008000"/>
     <use xlink:href="#mce7476b090" x="389.023923" y="252.642327" style="fill: #008000; stroke: #008000"/>
     <use xlink:href="#mce7476b090" x="395.698565" y="256.425152" style="fill: #008000; stroke: #008000"/>
     <use xlink:href="#mce7476b090" x="402.373206" y="259.998245" style="fill: #008000; stroke: #008000"/>
     <use xlink:href="#mce7476b090" x="409.047847" y="263.620053" style="fill: #008000; stroke: #008000"/>
     <use xlink:href="#mce7476b090" x="415.722488" y="267.411586" style="fill: #008000; stroke: #008000"/>
     <use xlink:href="#mce7476b090" x="422.397129" y="271.330372" style="fill: #008000; stroke: #008000"/>
     <use xlink:href="#mce7476b090" x="429.07177" y="275.31685" style="fill: #008000; stroke: #008000"/>
     <use xlink:href="#mce7476b090" x="435.746411" y="279.969165" style="fill: #008000; stroke: #008000"/>
     <use xlink:href="#mce7476b090" x="442.421053" y="283.344601" style="fill: #008000; stroke: #008000"/>
     <use xlink:href="#mce7476b090" x="449.095694" y="286.592785" style="fill: #008000; stroke: #008000"/>
     <use xlink:href="#mce7476b090" x="455.770335" y="290.954285" style="fill: #008000; stroke: #008000"/>
     <use xlink:href="#mce7476b090" x="462.444976" y="294.19491" style="fill: #008000; stroke: #008000"/>
     <use xlink:href="#mce7476b090" x="469.119617" y="297.427403" style="fill: #008000; stroke: #008000"/>
     <use xlink:href="#mce7476b090" x="475.794258" y="300.883019" style="fill: #008000; stroke: #008000"/>
     <use xlink:href="#mce7476b090" x="482.4689" y="304.810349" style="fill: #008000; stroke: #008000"/>
     <use xlink:href="#mce7476b090" x="489.143541" y="308.664317" style="fill: #008000; stroke: #008000"/>
     <use xlink:href="#mce7476b090" x="495.818182" y="313.047422" style="fill: #008000; stroke: #008000"/>
     <use xlink:href="#mce7476b090" x="502.492823" y="316.604988" style="fill: #008000; stroke: #008000"/>
     <use xlink:href="#mce7476b090" x="509.167464" y="319.924068" style="fill: #008000; stroke: #008000"/>
     <use xlink:href="#mce7476b090" x="515.842105" y="323.709933" style="fill: #008000; stroke: #008000"/>
     <use xlink:href="#mce7476b090" x="522.516746" y="326.689646" style="fill: #008000; stroke: #008000"/>
     <use xlink:href="#mce7476b090" x="529.191388" y="329.424876" style="fill: #008000; stroke: #008000"/>
     <use xlink:href="#mce7476b090" x="535.866029" y="331.343111" style="fill: #008000; stroke: #008000"/>
     <use xlink:href="#mce7476b090" x="542.54067" y="332.653097" style="fill: #008000; stroke: #008000"/>
     <use xlink:href="#mce7476b090" x="549.215311" y="333.996437" style="fill: #008000; stroke: #008000"/>
     <use xlink:href="#mce7476b090" x="555.889952" y="336.81924" style="fill: #008000; stroke: #008000"/>
     <use xlink:href="#mce7476b090" x="562.564593" y="339.772994" style="fill: #008000; stroke: #008000"/>
     <use xlink:href="#mce7476b090" x="569.239234" y="342.990617" style="fill: #008000; stroke: #008000"/>
     <use xlink:href="#mce7476b090" x="575.913876" y="346.137672" style="fill: #008000; stroke: #008000"/>
     <use xlink:href="#mce7476b090" x="582.588517" y="349.381174" style="fill: #008000; stroke: #008000"/>
     <use xlink:href="#mce7476b090" x="589.263158" y="352.374359" style="fill: #008000; stroke: #008000"/>
     <use xlink:href="#mce7476b090" x="595.937799" y="355.294348" style="fill: #008000; stroke: #008000"/>
     <use xlink:href="#mce7476b090" x="602.61244" y="358.168086" style="fill: #008000; stroke: #008000"/>
     <use xlink:href="#mce7476b090" x="609.287081" y="360.603382" style="fill: #008000; stroke: #008000"/>
     <use xlink:href="#mce7476b090" x="615.961722" y="362.851783" style="fill: #008000; stroke: #008000"/>
     <use xlink:href="#mce7476b090" x="622.636364" y="365.419671" style="fill: #008000; stroke: #008000"/>
    </g>
   </g>
   <g id="line2d_26">
    <path d="M 115.363636 66.96 
L 122.038278 72.575266 
L 128.712919 73.137784 
L 135.38756 79.982775 
L 142.062201 84.345793 
L 148.736842 88.386714 
L 155.411483 92.421031 
L 162.086124 96.340421 
L 168.760766 100.315927 
L 175.435407 104.007833 
L 182.110048 107.286717 
L 188.784689 110.565602 
L 195.45933 114.654487 
L 202.133971 118.743373 
L 208.808612 123.204861 
L 215.483254 127.545008 
L 222.157895 131.970914 
L 228.832536 135.99524 
L 235.507177 140.188762 
L 242.181818 145.698089 
L 248.856459 150.914975 
L 255.5311 156.754222 
L 262.205742 161.096498 
L 268.880383 166.287394 
L 275.555024 172.554724 
L 282.229665 176.354671 
L 288.904306 181.221748 
L 295.578947 186.750605 
L 302.253589 190.356615 
L 308.92823 194.162186 
L 315.602871 197.967758 
L 322.277512 201.415592 
L 328.952153 212.013533 
L 335.626794 212.017494 
L 342.301435 215.399964 
L 348.976077 220.1225 
L 355.650718 225.922391 
L 362.325359 228.966749 
L 369 234.002831 
L 375.674641 238.493396 
L 382.349282 243.981746 
L 389.023923 246.96611 
L 395.698565 251.179435 
L 402.373206 255.392761 
L 409.047847 259.860616 
L 415.722488 264.32847 
L 422.397129 268.848898 
L 429.07177 275.142461 
L 435.746411 276.59704 
L 442.421053 280.69477 
L 449.095694 287.40181 
L 455.770335 288.311332 
L 462.444976 292.367856 
L 469.119617 296.065754 
L 475.794258 300.440145 
L 482.4689 304.400045 
L 489.143541 310.861172 
L 495.818182 311.426828 
L 502.492823 315.289023 
L 509.167464 322.469122 
L 515.842105 320.865493 
L 522.516746 324.471246 
L 529.191388 324.086265 
L 535.866029 325.511206 
L 542.54067 328.445506 
L 549.215311 336.337827 
L 555.889952 336.017474 
L 562.564593 339.269542 
L 569.239234 343.002826 
L 575.913876 347.439233 
L 582.588517 349.611394 
L 589.263158 352.540985 
L 595.937799 358.107529 
L 602.61244 358.505429 
L 609.287081 361.541539 
L 615.961722 369.36 
L 622.636364 366.263628 
" clip-path="url(#p7c3c0870c9)" style="fill: none; stroke: #0000ff; stroke-width: 1.5; stroke-linecap: square"/>
   </g>
   <g id="patch_3">
    <path d="M 90 384.48 
L 90 51.84 
" style="fill: none; stroke: #000000; stroke-width: 0.8; stroke-linejoin: miter; stroke-linecap: square"/>
   </g>
   <g id="patch_4">
    <path d="M 648 384.48 
L 648 51.84 
" style="fill: none; stroke: #000000; stroke-width: 0.8; stroke-linejoin: miter; stroke-linecap: square"/>
   </g>
   <g id="patch_5">
    <path d="M 90 384.48 
L 648 384.48 
" style="fill: none; stroke: #000000; stroke-width: 0.8; stroke-linejoin: miter; stroke-linecap: square"/>
   </g>
   <g id="patch_6">
    <path d="M 90 51.84 
L 648 51.84 
" style="fill: none; stroke: #000000; stroke-width: 0.8; stroke-linejoin: miter; stroke-linecap: square"/>
   </g>
   <g id="text_15">
    <!-- Cell 8 (LSTM) -->
    <g transform="translate(329.477813 45.84) scale(0.12 -0.12)">
     <defs>
      <path id="DejaVuSans-20" transform="scale(0.015625)"/>
      <path id="DejaVuSans-28" d="M 1984 4856 
Q 1566 4138 1362 3434 
Q 1159 2731 1159 2009 
Q 1159 1288 1364 580 
Q 1569 -128 1984 -844 
L 1484 -844 
Q 1016 -109 783 600 
Q 550 1309 550 2009 
Q 550 2706 781 3412 
Q 1013 4119 1484 4856 
L 1984 4856 
z
" transform="scale(0.015625)"/>
      <path id="DejaVuSans-4c" d="M 628 4666 
L 1259 4666 
L 1259 531 
L 3531 531 
L 3531 0 
L 628 0 
L 628 4666 
z
" transform="scale(0.015625)"/>
      <path id="DejaVuSans-54" d="M -19 4666 
L 3928 4666 
L 3928 4134 
L 2272 4134 
L 2272 0 
L 1638 0 
L 1638 4134 
L -19 4134 
L -19 4666 
z
" transform="scale(0.015625)"/>
      <path id="DejaVuSans-4d" d="M 628 4666 
L 1569 4666 
L 2759 1491 
L 3956 4666 
L 4897 4666 
L 4897 0 
L 4281 0 
L 4281 4097 
L 3078 897 
L 2444 897 
L 1241 4097 
L 1241 0 
L 628 0 
L 628 4666 
z
" transform="scale(0.015625)"/>
      <path id="DejaVuSans-29" d="M 513 4856 
L 1013 4856 
Q 1481 4119 1714 3412 
Q 1947 2706 1947 2009 
Q 1947 1309 1714 600 
Q 1481 -109 1013 -844 
L 513 -844 
Q 928 -128 1133 580 
Q 1338 1288 1338 2009 
Q 1338 2731 1133 3434 
Q 928 4138 513 4856 
z
" transform="scale(0.015625)"/>
     </defs>
     <use xlink:href="#DejaVuSans-43"/>
     <use xlink:href="#DejaVuSans-65" x="69.824219"/>
     <use xlink:href="#DejaVuSans-6c" x="131.347656"/>
     <use xlink:href="#DejaVuSans-6c" x="159.130859"/>
     <use xlink:href="#DejaVuSans-20" x="186.914062"/>
     <use xlink:href="#DejaVuSans-38" x="218.701172"/>
     <use xlink:href="#DejaVuSans-20" x="282.324219"/>
     <use xlink:href="#DejaVuSans-28" x="314.111328"/>
     <use xlink:href="#DejaVuSans-4c" x="353.125"/>
     <use xlink:href="#DejaVuSans-53" x="408.837891"/>
     <use xlink:href="#DejaVuSans-54" x="472.314453"/>
     <use xlink:href="#DejaVuSans-4d" x="533.398438"/>
     <use xlink:href="#DejaVuSans-29" x="619.677734"/>
    </g>
   </g>
   <g id="legend_1">
    <g id="patch_7">
     <path d="M 562.059375 89.19625 
L 641 89.19625 
Q 643 89.19625 643 87.19625 
L 643 58.84 
Q 643 56.84 641 56.84 
L 562.059375 56.84 
Q 560.059375 56.84 560.059375 58.84 
L 560.059375 87.19625 
Q 560.059375 89.19625 562.059375 89.19625 
z
" style="fill: #ffffff; opacity: 0.8; stroke: #cccccc; stroke-linejoin: miter"/>
    </g>
    <g id="line2d_27">
     <path d="M 564.059375 64.938437 
L 574.059375 64.938437 
L 584.059375 64.938437 
" style="fill: none; stroke: #008000; stroke-width: 1.5; stroke-linecap: square"/>
     <g>
      <use xlink:href="#mce7476b090" x="574.059375" y="64.938437" style="fill: #008000; stroke: #008000"/>
     </g>
    </g>
    <g id="text_16">
     <!-- Predicted -->
     <g transform="translate(592.059375 68.438437) scale(0.1 -0.1)">
      <defs>
       <path id="DejaVuSans-50" d="M 1259 4147 
L 1259 2394 
L 2053 2394 
Q 2494 2394 2734 2622 
Q 2975 2850 2975 3272 
Q 2975 3691 2734 3919 
Q 2494 4147 2053 4147 
L 1259 4147 
z
M 628 4666 
L 2053 4666 
Q 2838 4666 3239 4311 
Q 3641 3956 3641 3272 
Q 3641 2581 3239 2228 
Q 2838 1875 2053 1875 
L 1259 1875 
L 1259 0 
L 628 0 
L 628 4666 
z
" transform="scale(0.015625)"/>
       <path id="DejaVuSans-72" d="M 2631 2963 
Q 2534 3019 2420 3045 
Q 2306 3072 2169 3072 
Q 1681 3072 1420 2755 
Q 1159 2438 1159 1844 
L 1159 0 
L 581 0 
L 581 3500 
L 1159 3500 
L 1159 2956 
Q 1341 3275 1631 3429 
Q 1922 3584 2338 3584 
Q 2397 3584 2469 3576 
Q 2541 3569 2628 3553 
L 2631 2963 
z
" transform="scale(0.015625)"/>
       <path id="DejaVuSans-64" d="M 2906 2969 
L 2906 4863 
L 3481 4863 
L 3481 0 
L 2906 0 
L 2906 525 
Q 2725 213 2448 61 
Q 2172 -91 1784 -91 
Q 1150 -91 751 415 
Q 353 922 353 1747 
Q 353 2572 751 3078 
Q 1150 3584 1784 3584 
Q 2172 3584 2448 3432 
Q 2725 3281 2906 2969 
z
M 947 1747 
Q 947 1113 1208 752 
Q 1469 391 1925 391 
Q 2381 391 2643 752 
Q 2906 1113 2906 1747 
Q 2906 2381 2643 2742 
Q 2381 3103 1925 3103 
Q 1469 3103 1208 2742 
Q 947 2381 947 1747 
z
" transform="scale(0.015625)"/>
       <path id="DejaVuSans-69" d="M 603 3500 
L 1178 3500 
L 1178 0 
L 603 0 
L 603 3500 
z
M 603 4863 
L 1178 4863 
L 1178 4134 
L 603 4134 
L 603 4863 
z
" transform="scale(0.015625)"/>
       <path id="DejaVuSans-74" d="M 1172 4494 
L 1172 3500 
L 2356 3500 
L 2356 3053 
L 1172 3053 
L 1172 1153 
Q 1172 725 1289 603 
Q 1406 481 1766 481 
L 2356 481 
L 2356 0 
L 1766 0 
Q 1100 0 847 248 
Q 594 497 594 1153 
L 594 3053 
L 172 3053 
L 172 3500 
L 594 3500 
L 594 4494 
L 1172 4494 
z
" transform="scale(0.015625)"/>
      </defs>
      <use xlink:href="#DejaVuSans-50"/>
      <use xlink:href="#DejaVuSans-72" x="58.552734"/>
      <use xlink:href="#DejaVuSans-65" x="97.416016"/>
      <use xlink:href="#DejaVuSans-64" x="158.939453"/>
      <use xlink:href="#DejaVuSans-69" x="222.416016"/>
      <use xlink:href="#DejaVuSans-63" x="250.199219"/>
      <use xlink:href="#DejaVuSans-74" x="305.179688"/>
      <use xlink:href="#DejaVuSans-65" x="344.388672"/>
      <use xlink:href="#DejaVuSans-64" x="405.912109"/>
     </g>
    </g>
    <g id="line2d_28">
     <path d="M 564.059375 79.616562 
L 574.059375 79.616562 
L 584.059375 79.616562 
" style="fill: none; stroke: #0000ff; stroke-width: 1.5; stroke-linecap: square"/>
    </g>
    <g id="text_17">
     <!-- Actual -->
     <g transform="translate(592.059375 83.116562) scale(0.1 -0.1)">
      <defs>
       <path id="DejaVuSans-41" d="M 2188 4044 
L 1331 1722 
L 3047 1722 
L 2188 4044 
z
M 1831 4666 
L 2547 4666 
L 4325 0 
L 3669 0 
L 3244 1197 
L 1141 1197 
L 716 0 
L 50 0 
L 1831 4666 
z
" transform="scale(0.015625)"/>
       <path id="DejaVuSans-75" d="M 544 1381 
L 544 3500 
L 1119 3500 
L 1119 1403 
Q 1119 906 1312 657 
Q 1506 409 1894 409 
Q 2359 409 2629 706 
Q 2900 1003 2900 1516 
L 2900 3500 
L 3475 3500 
L 3475 0 
L 2900 0 
L 2900 538 
Q 2691 219 2414 64 
Q 2138 -91 1772 -91 
Q 1169 -91 856 284 
Q 544 659 544 1381 
z
M 1991 3584 
L 1991 3584 
z
" transform="scale(0.015625)"/>
       <path id="DejaVuSans-61" d="M 2194 1759 
Q 1497 1759 1228 1600 
Q 959 1441 959 1056 
Q 959 750 1161 570 
Q 1363 391 1709 391 
Q 2188 391 2477 730 
Q 2766 1069 2766 1631 
L 2766 1759 
L 2194 1759 
z
M 3341 1997 
L 3341 0 
L 2766 0 
L 2766 531 
Q 2569 213 2275 61 
Q 1981 -91 1556 -91 
Q 1019 -91 701 211 
Q 384 513 384 1019 
Q 384 1609 779 1909 
Q 1175 2209 1959 2209 
L 2766 2209 
L 2766 2266 
Q 2766 2663 2505 2880 
Q 2244 3097 1772 3097 
Q 1472 3097 1187 3025 
Q 903 2953 641 2809 
L 641 3341 
Q 956 3463 1253 3523 
Q 1550 3584 1831 3584 
Q 2591 3584 2966 3190 
Q 3341 2797 3341 1997 
z
" transform="scale(0.015625)"/>
      </defs>
      <use xlink:href="#DejaVuSans-41"/>
      <use xlink:href="#DejaVuSans-63" x="66.658203"/>
      <use xlink:href="#DejaVuSans-74" x="121.638672"/>
      <use xlink:href="#DejaVuSans-75" x="160.847656"/>
      <use xlink:href="#DejaVuSans-61" x="224.226562"/>
      <use xlink:href="#DejaVuSans-6c" x="285.505859"/>
     </g>
    </g>
   </g>
  </g>
 </g>
 <defs>
  <clipPath id="p7c3c0870c9">
   <rect x="90" y="51.84" width="558" height="332.64"/>
  </clipPath>
 </defs>
</svg>
